<svg xmlns="http://www.w3.org/2000/svg" viewBox="0 0 400 300" fill="none">
  <rect x="40" y="180" width="80" height="60" rx="6" stroke="#6e7681" stroke-width="1.5" fill="#21262d"/>
  <rect x="50" y="195" width="60" height="8" rx="2" fill="#484f58"/>
  <rect x="50" y="210" width="40" height="8" rx="2" fill="#484f58"/>
  <rect x="50" y="225" width="50" height="8" rx="2" fill="#484f58"/>
  <rect x="160" y="180" width="80" height="60" rx="6" stroke="#6e7681" stroke-width="1.5" fill="#21262d"/>
  <rect x="170" y="195" width="60" height="8" rx="2" fill="#484f58"/>
  <rect x="170" y="210" width="40" height="8" rx="2" fill="#484f58"/>
  <rect x="170" y="225" width="50" height="8" rx="2" fill="#484f58"/>
  <rect x="280" y="180" width="80" height="60" rx="6" stroke="#6e7681" stroke-width="1.5" fill="#21262d"/>
  <rect x="290" y="195" width="60" height="8" rx="2" fill="#484f58"/>
  <rect x="290" y="210" width="40" height="8" rx="2" fill="#484f58"/>
  <rect x="290" y="225" width="50" height="8" rx="2" fill="#484f58"/>
  <text x="80" y="175" font-family="system-ui,sans-serif" font-size="11" fill="#8b949e" text-anchor="middle">On-Premises</text>
  <text x="320" y="175" font-family="system-ui,sans-serif" font-size="11" fill="#8b949e" text-anchor="middle">Azure</text>
  <path d="M125 210 L155 210" stroke="#0078d4" stroke-width="2" marker-end="url(#arrow)"/>
  <path d="M245 210 L275 210" stroke="#0078d4" stroke-width="2" marker-end="url(#arrow)"/>
  <defs>
    <marker id="arrow" markerWidth="8" markerHeight="6" refX="8" refY="3" orient="auto">
      <path d="M0,0 L8,3 L0,6" fill="#0078d4"/>
    </marker>
  </defs>
  <rect x="140" y="60" width="120" height="80" rx="10" stroke="#0078d4" stroke-width="2" fill="#002b4d"/>
  <text x="200" y="95" font-family="system-ui,sans-serif" font-size="13" font-weight="600" fill="#6cb8f7" text-anchor="middle">Azure Migrate</text>
  <text x="200" y="115" font-family="system-ui,sans-serif" font-size="10" fill="#8b949e" text-anchor="middle">Discover · Assess · Migrate</text>
  <line x1="200" y1="140" x2="80" y2="180" stroke="#0078d4" stroke-width="1" stroke-dasharray="4"/>
  <line x1="200" y1="140" x2="200" y2="180" stroke="#0078d4" stroke-width="1" stroke-dasharray="4"/>
  <line x1="200" y1="140" x2="320" y2="180" stroke="#0078d4" stroke-width="1" stroke-dasharray="4"/>
</svg>
